<svg id="Layer_1" data-name="Layer 1" xmlns="http://www.w3.org/2000/svg" viewBox="0 0 1629.86 178.94"><title>Logo</title><path d="M147.54,602.1H135.35l68-176.7h12.07Z" transform="translate(-135.35 -423.17)"/><path d="M213.37,602.1H201.18l68-176.7h12.07Z" transform="translate(-135.35 -423.17)"/><path d="M427.28,536.5q-3,25.82-19,39.84t-42.64,14q-28.84,0-46.22-20.68T302,514.37V498.72q0-22.68,8.11-39.9t23-26.43q14.87-9.22,34.43-9.22,25.92,0,41.57,14.47t18.22,40.07H405.71q-2.79-19.5-12.13-28.25t-26.09-8.74q-20.57,0-32.25,15.21t-11.68,43.29V515q0,26.5,11.07,42.17t31,15.66q17.88,0,27.44-8.1t12.68-28.22Z" transform="translate(-135.35 -423.17)"/><path d="M581.74,512q0,23.93-8,41.75T550.89,581q-14.75,9.39-34.42,9.39-19.23,0-34.09-9.45T459.3,554q-8.21-17.49-8.44-40.52V501.74q0-23.48,8.16-41.47t23.08-27.55q14.92-9.56,34.15-9.55,19.54,0,34.48,9.44t23,27.39q8.05,17.92,8,41.74Zm-21.35-10.5q0-28.95-11.62-44.43t-32.52-15.48q-20.36,0-32,15.48t-12,43v12q0,28.05,11.79,44.09t32.47,16q20.79,0,32.19-15.14t11.73-43.42Z" transform="translate(-135.35 -423.17)"/><path d="M613.93,588.13V425.4h45.93q21.24,0,37.56,9.39a63.57,63.57,0,0,1,25.2,26.71q8.88,17.33,9,39.79v10.4q0,23-8.89,40.34a62.45,62.45,0,0,1-25.37,26.6q-16.49,9.29-38.39,9.5ZM635.39,443V570.59H658q24.81,0,38.62-15.44t13.8-44v-9.51q0-27.75-13-43.12T660.42,443Z" transform="translate(-135.35 -423.17)"/><path d="M856,512.92H785.49v57.67h81.92v17.54H764V425.4H866.29V443h-80.8v52.42H856Z" transform="translate(-135.35 -423.17)"/><path d="M895.8,588.13V425.4h45.49q20,0,35.87,9.11a63,63,0,0,1,24.76,26.1q8.88,17,8.88,38.67v15q0,21.79-8.83,38.67a62.78,62.78,0,0,1-24.86,26q-16.05,9.16-36.83,9.16ZM909.54,437V576.51h30.85q25.71,0,41.24-17.06t15.54-46.14V499q0-28.07-15.31-45t-40.35-17Z" transform="translate(-135.35 -423.17)"/><path d="M1106.47,520.29H1059.2v67.84h-13.86V425.4h52.86q26,0,40.69,12.62t14.64,35.27a44.08,44.08,0,0,1-9.17,27.58,46.85,46.85,0,0,1-24.59,16.52l40.69,69.29v1.45h-14.65Zm-47.27-11.62h42.13q17.33,0,27.83-9.85t10.51-25.53q0-17.24-11-26.75T1098,437H1059.2Z" transform="translate(-135.35 -423.17)"/><path d="M1278.81,542.42h-73.87l-16.77,45.71h-14.41l61.58-162.73h13.08L1310,588.13h-14.31Zm-69.62-11.62h65.27l-32.64-88.63Z" transform="translate(-135.35 -423.17)"/><path d="M1450.15,568.8Q1443,579,1427.74,584.67a96.94,96.94,0,0,1-34.14,5.7q-19.11,0-34-9.17a60.91,60.91,0,0,1-23-25.93q-8.16-16.75-8.27-38.44V496.26q0-33.86,17.1-53.48t45.93-19.61q25.16,0,40.46,12.8T1450,471.23h-13.75q-3-17.94-14.58-27.19t-30.24-9.25q-22.8,0-36.1,16.22t-13.3,45.75V516q0,18.56,6.32,32.83t18.1,22.09a47.87,47.87,0,0,0,27.11,7.82q17.76,0,30.51-5.58,8.27-3.69,12.29-8.61v-42h-43.7V510.9h57.45Z" transform="translate(-135.35 -423.17)"/><path d="M1609.41,515.6q0,22.46-7.76,39.45t-22.19,26.15q-14.42,9.16-33.3,9.17-28.5,0-46.05-20.4t-17.55-55V498.16q0-22.23,7.88-39.39t22.3-26.38q14.41-9.22,33.19-9.22t33.14,9.05a59.48,59.48,0,0,1,22.18,25.6q7.83,16.53,8.16,38.33Zm-13.74-17.66q0-29.4-13.3-46.05t-36.44-16.65q-22.7,0-36.15,16.71t-13.47,46.66v17q0,28.95,13.41,45.88t36.44,16.93q23.35,0,36.43-16.71t13.08-46.55Z" transform="translate(-135.35 -423.17)"/><path d="M1765.21,588.13h-13.74l-93.55-139.26V588.13h-13.86V425.4h13.86l93.66,139.37V425.4h13.63Z" transform="translate(-135.35 -423.17)"/></svg>