<svg id="Layer_1" data-name="Layer 1" xmlns="http://www.w3.org/2000/svg" viewBox="0 0 625.47369 149.63162"><defs><style>.cls-1{fill:#0071bc;}.cls-2{fill:#29abe2;}.cls-3{fill:#fff;}</style></defs><title>body</title><rect class="cls-1" x="546.43859" y="66.2632" width="47.19298" height="83.36842" rx="12" ry="12"/><path class="cls-2" d="M978.50879,393.10522h-8.9671v18H969.5v12.18421a13,13,0,0,1-13,13H929.83331a13,13,0,0,1-13-13V411.10522h-.04162v-18H395.0351a21,21,0,0,0-21,21v67.68421a21,21,0,0,0,21,21H978.50879a21,21,0,0,0,21-21V414.10522A21,21,0,0,0,978.50879,393.10522Z" transform="translate(-374.0351 -393.10522)"/><path class="cls-3" d="M409.5415,447.42285l21.41016,9.22852v3.876l-25.43994-11.65869v-2.98388l25.43994-11.62793v3.876Z" transform="translate(-374.0351 -393.10522)"/><path class="cls-3" d="M466.94287,451.26807q0,7.78271-3.44531,12.35058a11.00227,11.00227,0,0,1-9.25928,4.56836q-6.95214,0-10.52051-5.168l-.15381,4.55274h-3.44531v-47.25h3.66065v18.79541a11.5682,11.5682,0,0,1,10.39746-5.44483,11.1049,11.1049,0,0,1,9.33594,4.50684q3.42993,4.50659,3.43017,12.53516Zm-3.69141-.646q0-6.58227-2.55322-10.1665a8.32506,8.32506,0,0,0-7.19824-3.584,10.13226,10.13226,0,0,0-5.99854,1.73828,10.56556,10.56556,0,0,0-3.72216,5.09082V458.7124q2.76855,6.2754,9.78222,6.27539a8.26374,8.26374,0,0,0,7.1211-3.59912Q463.25122,457.78956,463.25146,450.62207Z" transform="translate(-374.0351 -393.10522)"/><path class="cls-3" d="M473.03369,450.4375a19.58094,19.58094,0,0,1,1.86133-8.644,13.97834,13.97834,0,0,1,12.96582-8.1211,13.69393,13.69393,0,0,1,10.7666,4.66016q4.12208,4.66113,4.12207,12.35107v.769a19.759,19.759,0,0,1-1.86133,8.69043,13.8949,13.8949,0,0,1-5.24463,5.95214,14.37838,14.37838,0,0,1-7.72119,2.0918,13.70336,13.70336,0,0,1-10.751-4.66015q-4.13818-4.66115-4.1377-12.35108Zm3.69141,1.01514a15.10092,15.10092,0,0,0,3.09179,9.79785,10.46054,10.46054,0,0,0,16.18067,0q3.09082-3.83057,3.09131-10.10547v-.70752a16.9408,16.9408,0,0,0-1.415-6.98291,11.37213,11.37213,0,0,0-3.96826-4.90625,10.14082,10.14082,0,0,0-5.84473-1.73828,9.837,9.837,0,0,0-8.02881,3.86035q-3.10767,3.86133-3.10693,10.10547Z" transform="translate(-374.0351 -393.10522)"/><path class="cls-3" d="M508.87109,450.62207q0-7.752,3.46094-12.35107a11.1383,11.1383,0,0,1,9.39746-4.59864,11.57448,11.57448,0,0,1,10.27442,5.32178V420.32178h3.66064v47.25h-3.44531l-.15381-4.42969q-3.5376,5.04565-10.39746,5.04492a11.09616,11.09616,0,0,1-9.27442-4.62988q-3.52295-4.62891-3.52246-12.5044Zm3.72217.646q0,6.36766,2.55322,10.04394a8.25775,8.25775,0,0,0,7.19825,3.67578,9.90775,9.90775,0,0,0,9.65918-5.99853v-15.627q-2.86085-6.49-9.59766-6.49072a8.356,8.356,0,0,0-7.229,3.64551Q512.59326,444.16162,512.59326,451.26807Z" transform="translate(-374.0351 -393.10522)"/><path class="cls-3" d="M555.90576,462.28076l9.7207-27.99316h3.96827l-14.21192,38.94433-.73828,1.72266q-2.73852,6.06006-8.45947,6.06006a10.32314,10.32314,0,0,1-2.83008-.43067l-.03076-3.04541,1.90723.18457a6.821,6.821,0,0,0,4.38378-1.33789,10.171,10.171,0,0,0,2.84522-4.59912l1.63037-4.49121L541.54,434.2876h4.02978Z" transform="translate(-374.0351 -393.10522)"/><path class="cls-3" d="M596.17285,447.2998l-21.87158-9.3208v-3.78369l25.99365,11.62793v2.98389l-25.99365,11.65869v-3.81445Z" transform="translate(-374.0351 -393.10522)"/></svg>