<svg id="Layer_1" data-name="Layer 1" xmlns="http://www.w3.org/2000/svg" viewBox="0 0 625.47369 149.63162"><defs><style>.cls-1{fill:#f15a24;}.cls-2{fill:#f7931e;}.cls-3{fill:#fff;}</style></defs><title>div</title><rect class="cls-1" x="546.43859" y="66.2632" width="47.19298" height="83.36842" rx="12" ry="12"/><path class="cls-2" d="M978.50879,393.10522h-8.9671v18H969.5v12.18421a13,13,0,0,1-13,13H929.83331a13,13,0,0,1-13-13V411.10522h-.04162v-18H395.0351a21,21,0,0,0-21,21v67.68421a21,21,0,0,0,21,21H978.50879a21,21,0,0,0,21-21V414.10522A21,21,0,0,0,978.50879,393.10522Z" transform="translate(-374.0351 -393.10522)"/><path class="cls-3" d="M403.43359,450.42285l21.41016,9.22852v3.876L399.4043,451.86865v-2.98388l25.43945-11.62793v3.876Z" transform="translate(-374.0351 -393.10522)"/><path class="cls-3" d="M432.56543,453.62207q0-7.752,3.46094-12.35107a11.1383,11.1383,0,0,1,9.39746-4.59864,11.57446,11.57446,0,0,1,10.27441,5.32178V423.32178h3.66016v47.25h-3.44531l-.15332-4.42969q-3.5376,5.04565-10.39747,5.04492a11.09614,11.09614,0,0,1-9.27441-4.62988q-3.52295-4.62891-3.52246-12.5044Zm3.72266.646q0,6.36766,2.55273,10.04394a8.25773,8.25773,0,0,0,7.19824,3.67578,9.90773,9.90773,0,0,0,9.65918-5.99853v-15.627q-2.86083-6.49-9.59765-6.49072a8.3552,8.3552,0,0,0-7.22852,3.64551Q436.28808,447.16162,436.28809,454.26807Z" transform="translate(-374.0351 -393.10522)"/><path class="cls-3" d="M468.833,427.67432a2.46542,2.46542,0,0,1,.67578-1.75733,2.41362,2.41362,0,0,1,1.8457-.71875,2.46386,2.46386,0,0,1,1.86133.71875,2.43442,2.43442,0,0,1,.69238,1.75733,2.38389,2.38389,0,0,1-.69238,1.74267,2.49094,2.49094,0,0,1-1.86133.70313,2.43975,2.43975,0,0,1-1.8457-.70313A2.41379,2.41379,0,0,1,468.833,427.67432Zm4.33691,42.89746h-3.6914V437.2876h3.6914Z" transform="translate(-374.0351 -393.10522)"/><path class="cls-3" d="M493.53516,465.49609l10.12011-28.20849h3.78418l-12.42773,33.28418h-2.98438L479.53809,437.2876h3.78418Z" transform="translate(-374.0351 -393.10522)"/><path class="cls-3" d="M534.35449,450.2998,512.4834,440.979v-3.78369l25.99414,11.62793v2.98389L512.4834,463.46582v-3.81445Z" transform="translate(-374.0351 -393.10522)"/></svg>