<svg id="Layer_1" data-name="Layer 1" xmlns="http://www.w3.org/2000/svg" viewBox="0 0 625.47369 149.63162"><defs><style>.cls-1{fill:#009245;}.cls-2{fill:#39b54a;}.cls-3{fill:#fff;}</style></defs><title>h3</title><rect class="cls-1" x="546.43859" y="66.2632" width="47.19298" height="83.36842" rx="12" ry="12"/><path class="cls-2" d="M978.50879,393.10522h-8.9671v18H969.5v12.18421a13,13,0,0,1-13,13H929.83331a13,13,0,0,1-13-13V411.10522h-.04162v-18H395.0351a21,21,0,0,0-21,21v67.68421a21,21,0,0,0,21,21H978.50879a21,21,0,0,0,21-21V414.10522A21,21,0,0,0,978.50879,393.10522Z" transform="translate(-374.0351 -393.10522)"/><path class="cls-3" d="M401.43359,450.42285l21.41016,9.22852v3.876L397.4043,451.86865v-2.98388l25.43945-11.62793v3.876Z" transform="translate(-374.0351 -393.10522)"/><path class="cls-3" d="M435.70215,442.917a13.00581,13.00581,0,0,1,4.64551-4.61426,12.16847,12.16847,0,0,1,6.18261-1.63037q5.35254,0,7.96778,3.01465,2.61474,3.01539,2.6455,9.04395v21.84082H453.4834V448.7002q-.03224-4.45972-1.89258-6.64454-1.86182-2.18408-5.95215-2.18408a9.315,9.315,0,0,0-6.04492,2.1377,12.53443,12.53443,0,0,0-3.8916,5.76806v22.79444H432.042v-47.25h3.66016Z" transform="translate(-374.0351 -393.10522)"/><path class="cls-3" d="M474.21582,446.17773h3.81445a12.80031,12.80031,0,0,0,5.53711-1.12255,8.44707,8.44707,0,0,0,3.61524-3.07618,8.20212,8.20212,0,0,0,1.24609-4.50683,9.10524,9.10524,0,0,0-2.43066-6.73682q-2.43018-2.42944-6.9834-2.43017a10.00426,10.00426,0,0,0-7.05957,2.53808,8.66907,8.66907,0,0,0-2.75293,6.69043h-3.69141a11.96211,11.96211,0,0,1,1.75391-6.35254,11.77673,11.77673,0,0,1,4.85937-4.44482,15.07009,15.07009,0,0,1,6.89063-1.56885q6.09082,0,9.59765,3.32227t3.50782,9.10546a9.69637,9.69637,0,0,1-2.0459,5.95215,12.25817,12.25817,0,0,1-5.61426,4.07618,11.52625,11.52625,0,0,1,6.33692,4.01464,10.91692,10.91692,0,0,1,2.15332,6.78272,12.0771,12.0771,0,0,1-3.75293,9.25928Q485.44433,471.187,479.169,471.187a16.76289,16.76289,0,0,1-7.33692-1.59961,11.84163,11.84163,0,0,1-6.998-11.1665h3.69141a8.94886,8.94886,0,0,0,2.9834,6.96728,10.99846,10.99846,0,0,0,7.66016,2.6919q4.76807,0,7.42871-2.4458,2.66014-2.44484,2.66113-7.09033a8.37831,8.37831,0,0,0-2.876-6.85987q-2.877-2.36865-8.47558-2.36865h-3.69141Z" transform="translate(-374.0351 -393.10522)"/><path class="cls-3" d="M522.419,450.2998l-21.8711-9.3208v-3.78369L526.542,448.82324v2.98389l-25.99414,11.65869v-3.81445Z" transform="translate(-374.0351 -393.10522)"/></svg>