<svg id="Layer_1" data-name="Layer 1" xmlns="http://www.w3.org/2000/svg" viewBox="0 0 625.47369 149.63162"><defs><style>.cls-1{fill:#009245;}.cls-2{fill:#39b54a;}.cls-3{fill:#fff;}</style></defs><title>h6</title><rect class="cls-1" x="546.43859" y="66.2632" width="47.19298" height="83.36842" rx="12" ry="12"/><path class="cls-2" d="M978.50879,393.10522h-8.9671v18H969.5v12.18421a13,13,0,0,1-13,13H929.83331a13,13,0,0,1-13-13V411.10522h-.04162v-18H395.0351a21,21,0,0,0-21,21v67.68421a21,21,0,0,0,21,21H978.50879a21,21,0,0,0,21-21V414.10522A21,21,0,0,0,978.50879,393.10522Z" transform="translate(-374.0351 -393.10522)"/><path class="cls-3" d="M401.43359,450.42285l21.41016,9.22852v3.876L397.4043,451.86865v-2.98388l25.43945-11.62793v3.876Z" transform="translate(-374.0351 -393.10522)"/><path class="cls-3" d="M435.70215,442.917a13.00581,13.00581,0,0,1,4.64551-4.61426,12.16847,12.16847,0,0,1,6.18261-1.63037q5.35254,0,7.96778,3.01465,2.61474,3.01539,2.6455,9.04395v21.84082H453.4834V448.7002q-.03224-4.45972-1.89258-6.64454-1.86182-2.18408-5.95215-2.18408a9.315,9.315,0,0,0-6.04492,2.1377,12.53443,12.53443,0,0,0-3.8916,5.76806v22.79444H432.042v-47.25h3.66016Z" transform="translate(-374.0351 -393.10522)"/><path class="cls-3" d="M487.751,425.44434v3.19921h-.42969q-8.03028,0-12.64356,4.73-4.61425,4.7307-5.10644,13.14257a12.48643,12.48643,0,0,1,4.707-3.95312,14.36564,14.36564,0,0,1,6.39844-1.39942,11.7417,11.7417,0,0,1,9.39746,4.07618q3.49072,4.07592,3.49121,10.65869a18.46119,18.46119,0,0,1-1.63086,7.875,12.41581,12.41581,0,0,1-11.627,7.41357,13.1769,13.1769,0,0,1-10.459-4.66015q-4.03125-4.66115-4.03027-12.04346V450.792q0-12.02709,5.47559-18.62646,5.47559-6.59766,15.53515-6.72119Zm-7.65918,18.91845a11.35268,11.35268,0,0,0-6.53711,2.07422,9.95311,9.95311,0,0,0-4.04492,5.26807v3.13379a14.6115,14.6115,0,0,0,2.999,9.52392,9.58269,9.58269,0,0,0,7.79883,3.68653,8.41874,8.41874,0,0,0,6.96679-3.41016,13.56511,13.56511,0,0,0,2.66114-8.60254,12.82463,12.82463,0,0,0-2.66114-8.47851A8.85946,8.85946,0,0,0,480.0918,444.36279Z" transform="translate(-374.0351 -393.10522)"/><path class="cls-3" d="M522.419,450.2998l-21.8711-9.3208v-3.78369L526.542,448.82324v2.98389l-25.99414,11.65869v-3.81445Z" transform="translate(-374.0351 -393.10522)"/></svg>