<svg id="Layer_1" data-name="Layer 1" xmlns="http://www.w3.org/2000/svg" viewBox="0 0 625.47369 149.63162"><defs><style>.cls-1{fill:#009245;}.cls-2{fill:#39b54a;}.cls-3{fill:#fff;}</style></defs><title>p</title><rect class="cls-1" x="546.43859" y="66.2632" width="47.19298" height="83.36842" rx="12" ry="12"/><path class="cls-2" d="M978.50879,393.10522h-8.9671v18H969.5v12.18421a13,13,0,0,1-13,13H929.83331a13,13,0,0,1-13-13V411.10522h-.04162v-18H395.0351a21,21,0,0,0-21,21v67.68421a21,21,0,0,0,21,21H978.50879a21,21,0,0,0,21-21V414.10522A21,21,0,0,0,978.50879,393.10522Z" transform="translate(-374.0351 -393.10522)"/><path class="cls-3" d="M401.43359,450.42285l21.41016,9.22852v3.876L397.4043,451.86865v-2.98388l25.43945-11.62793v3.876Z" transform="translate(-374.0351 -393.10522)"/><path class="cls-3" d="M458.80469,454.26807q0,7.78271-3.44531,12.35058a10.97258,10.97258,0,0,1-9.22852,4.56836q-6.82909,0-10.459-4.79883v16.98047h-3.66114V437.2876h3.415l.18457,4.70654a11.81055,11.81055,0,0,1,10.42774-5.32178,11.07068,11.07068,0,0,1,9.36718,4.522q3.39845,4.522,3.39942,12.55078Zm-3.69141-.646q0-6.36768-2.61426-10.05908a8.43328,8.43328,0,0,0-7.291-3.69141,9.71149,9.71149,0,0,0-9.53613,6.36768v15.96533a9.76663,9.76663,0,0,0,3.78417,4.36816,10.90683,10.90683,0,0,0,5.81348,1.50733,8.35288,8.35288,0,0,0,7.24414-3.70654Q455.11377,460.66674,455.11328,453.62207Z" transform="translate(-374.0351 -393.10522)"/><path class="cls-3" d="M487.84277,450.2998l-21.87109-9.3208v-3.78369l25.99414,11.62793v2.98389l-25.99414,11.65869v-3.81445Z" transform="translate(-374.0351 -393.10522)"/></svg>