<svg id="Layer_1" data-name="Layer 1" xmlns="http://www.w3.org/2000/svg" viewBox="0 0 625.47369 149.63162"><defs><style>.cls-1{fill:#662d91;}.cls-2{fill:#93278f;}.cls-3{fill:#fff;}</style></defs><title>style</title><rect class="cls-1" x="546.43859" y="66.2632" width="47.19298" height="83.36842" rx="12" ry="12"/><path class="cls-2" d="M978.50879,393.10522h-8.9671v18H969.5v12.18421a13,13,0,0,1-13,13H929.83331a13,13,0,0,1-13-13V411.10522h-.04162v-18H395.0351a21,21,0,0,0-21,21v67.68421a21,21,0,0,0,21,21H978.50879a21,21,0,0,0,21-21V414.10522A21,21,0,0,0,978.50879,393.10522Z" transform="translate(-374.0351 -393.10522)"/><path class="cls-3" d="M409.5415,447.42285l21.41016,9.22852v3.876l-25.43994-11.65869v-2.98388l25.43994-11.62793v3.876Z" transform="translate(-374.0351 -393.10522)"/><path class="cls-3" d="M460.083,459.1123a5.246,5.246,0,0,0-2.19922-4.39892,16.97453,16.97453,0,0,0-6.6294-2.59961,29.87029,29.87029,0,0,1-6.87548-2.15332,9.15812,9.15812,0,0,1-3.62989-2.96826,7.40575,7.40575,0,0,1-1.18408-4.24512,7.91926,7.91926,0,0,1,3.29151-6.50635,13.29692,13.29692,0,0,1,8.42871-2.56836,13.68924,13.68924,0,0,1,8.93652,2.75293,8.83847,8.83847,0,0,1,3.36816,7.18311h-3.6914a5.96183,5.96183,0,0,0-2.44531-4.86035,11.03833,11.03833,0,0,0-11.99708-.32276,4.98157,4.98157,0,0,0-2.1997,4.19873,4.53878,4.53878,0,0,0,1.83056,3.86084q1.8296,1.3689,6.67481,2.50684a31.36582,31.36582,0,0,1,7.25976,2.43018,9.4066,9.4066,0,0,1,3.584,3.10693,8.54327,8.54327,0,0,1-2.23047,11.13574,14.52232,14.52232,0,0,1-8.87451,2.52246,14.91045,14.91045,0,0,1-9.42822-2.81445,8.66414,8.66414,0,0,1-3.61475-7.12158h3.69141a6.40067,6.40067,0,0,0,2.72216,5.02978,11.13131,11.13131,0,0,0,6.6294,1.79932,10.46111,10.46111,0,0,0,6.21387-1.6919A5.07711,5.07711,0,0,0,460.083,459.1123Z" transform="translate(-374.0351 -393.10522)"/><path class="cls-3" d="M477.771,425.7666v8.521h6.89062v3.01465H477.771v22.20361a6.94719,6.94719,0,0,0,1,4.127,3.87266,3.87266,0,0,0,3.3374,1.355,22.9026,22.9026,0,0,0,2.98389-.30761l.1538,2.98877a12.04067,12.04067,0,0,1-3.9375.51806q-3.78369,0-5.50634-2.19922-1.7234-2.19947-1.72266-6.47558v-22.21H467.958V434.2876h6.12158v-8.521Z" transform="translate(-374.0351 -393.10522)"/><path class="cls-3" d="M502.8418,462.28076l9.7207-27.99316h3.96826l-14.21191,38.94433-.73828,1.72266q-2.73854,6.06006-8.45948,6.06006a10.32307,10.32307,0,0,1-2.83007-.43067l-.03077-3.04541,1.90723.18457a6.821,6.821,0,0,0,4.38379-1.33789,10.1709,10.1709,0,0,0,2.84521-4.59912l1.63038-4.49121L488.47607,434.2876h4.02979Z" transform="translate(-374.0351 -393.10522)"/><path class="cls-3" d="M526.34375,467.57178h-3.69141v-47.25h3.69141Z" transform="translate(-374.0351 -393.10522)"/><path class="cls-3" d="M549.23047,468.187a14.44515,14.44515,0,0,1-7.67529-2.0918,14.25742,14.25742,0,0,1-5.33692-5.8291,18.17059,18.17059,0,0,1-1.90722-8.38281v-1.32275a19.581,19.581,0,0,1,1.86132-8.644,14.80653,14.80653,0,0,1,5.18311-6.04492,12.79058,12.79058,0,0,1,7.19824-2.19922,12.0169,12.0169,0,0,1,9.61279,4.1377q3.55371,4.13745,3.55323,11.30469v2.061H537.97168v.70752a13.935,13.935,0,0,0,3.24561,9.42871,10.32283,10.32283,0,0,0,8.167,3.76807,11.98449,11.98449,0,0,0,5.21386-1.07666,11.55586,11.55586,0,0,0,4.10694-3.44531l2.30713,1.75341Q556.95166,468.18774,549.23047,468.187Zm-.67676-31.37695a9.203,9.203,0,0,0-6.99853,3.04541,14.06857,14.06857,0,0,0-3.46045,8.18262h19.96435v-.39991a12.21862,12.21862,0,0,0-2.73779-7.81347A8.48513,8.48513,0,0,0,548.55371,436.81006Z" transform="translate(-374.0351 -393.10522)"/><path class="cls-3" d="M589.77441,447.2998l-21.87158-9.3208v-3.78369l25.99365,11.62793v2.98389l-25.99365,11.65869v-3.81445Z" transform="translate(-374.0351 -393.10522)"/></svg>