<svg xmlns="http://www.w3.org/2000/svg" viewBox="0 0 362 362"><defs><style>.cls-1{fill:#2acca7;}.cls-2{fill:#1a7f69;}.cls-3{fill:#fff;}</style></defs><title>Favicon</title><g id="Layer_1" data-name="Layer 1"><circle class="cls-1" cx="181" cy="181" r="181"/></g><g id="Layer_2" data-name="Layer 2"><circle class="cls-2" cx="181" cy="181" r="126.5"/></g><g id="Layer_3" data-name="Layer 3"><path class="cls-3" d="M989.48,535.61q-2.78,23.75-17.53,36.65t-39.22,12.9q-26.52,0-42.51-19t-16-50.88v-14.4q0-20.87,7.46-36.7t21.12-24.31q13.68-8.48,31.67-8.48,23.85,0,38.24,13.31t16.76,36.86H969.63q-2.57-17.94-11.15-26t-24-8q-18.91,0-29.66,14t-10.74,39.82v14.51q0,24.39,10.17,38.79T932.73,569q16.44,0,25.24-7.45t11.66-26Z" transform="translate(-751.5 -327.5)"/></g></svg>