<svg id="Layer_1" data-name="Layer 1" xmlns="http://www.w3.org/2000/svg" viewBox="0 0 625.47369 149.63162"><defs><style>.cls-1{fill:#f15a24;}.cls-2{fill:#f7931e;}.cls-3{fill:#fff;}</style></defs><title>a</title><rect class="cls-1" x="546.43859" y="66.2632" width="47.19298" height="83.36842" rx="12" ry="12"/><path class="cls-2" d="M978.50879,393.10522h-8.9671v18H969.5v12.18421a13,13,0,0,1-13,13H929.83331a13,13,0,0,1-13-13V411.10522h-.04162v-18H395.0351a21,21,0,0,0-21,21v67.68421a21,21,0,0,0,21,21H978.50879a21,21,0,0,0,21-21V414.10522A21,21,0,0,0,978.50879,393.10522Z" transform="translate(-374.0351 -393.10522)"/><path class="cls-3" d="M402.43359,450.42285l21.41016,9.22852v3.876L398.4043,451.86865v-2.98388l25.43945-11.62793v3.876Z" transform="translate(-374.0351 -393.10522)"/><path class="cls-3" d="M454.05176,470.57178a17.41192,17.41192,0,0,1-.707-4.645,12.829,12.829,0,0,1-4.9375,3.89111,15.1198,15.1198,0,0,1-6.35157,1.36914,11.15692,11.15692,0,0,1-7.76757-2.67627,8.71664,8.71664,0,0,1-2.96875-6.76758,8.9097,8.9097,0,0,1,4.04492-7.69043q4.04443-2.83006,11.27441-2.83007h6.67481V447.439a7.294,7.294,0,0,0-2.19922-5.61425q-2.19873-2.04492-6.41406-2.04541a10.03916,10.03916,0,0,0-6.36719,1.96875,5.84976,5.84976,0,0,0-2.52246,4.7373l-3.69141-.03076a8.55876,8.55876,0,0,1,3.69141-6.875,14.21094,14.21094,0,0,1,9.07519-2.90723q5.56641,0,8.78223,2.78418a9.99031,9.99031,0,0,1,3.30664,7.76709v15.75a19.55731,19.55731,0,0,0,1.01465,7.229v.36914Zm-11.56641-2.64551a12.35775,12.35775,0,0,0,6.59863-1.78418,10.49279,10.49279,0,0,0,4.2295-4.76807v-7.32129h-6.582q-5.50782.06227-8.61329,2.01514a6.04546,6.04546,0,0,0-3.10742,5.36768,5.95215,5.95215,0,0,0,2.07617,4.645A7.8227,7.8227,0,0,0,442.48535,467.92627Z" transform="translate(-374.0351 -393.10522)"/><path class="cls-3" d="M487.67383,450.2998l-21.8711-9.3208v-3.78369l25.99415,11.62793v2.98389l-25.99415,11.65869v-3.81445Z" transform="translate(-374.0351 -393.10522)"/></svg>