<svg id="Layer_1" data-name="Layer 1" xmlns="http://www.w3.org/2000/svg" viewBox="0 0 625.47369 149.63162"><defs><style>.cls-1{fill:#f15a24;}.cls-2{fill:#f7931e;}.cls-3{fill:#fff;}</style></defs><title>br</title><rect class="cls-1" x="546.43859" y="66.2632" width="47.19298" height="83.36842" rx="12" ry="12"/><path class="cls-2" d="M978.50879,393.10522h-8.9671v18H969.5v12.18421a13,13,0,0,1-13,13H929.83331a13,13,0,0,1-13-13V411.10522h-.04162v-18H395.0351a21,21,0,0,0-21,21v67.68421a21,21,0,0,0,21,21H978.50879a21,21,0,0,0,21-21V414.10522A21,21,0,0,0,978.50879,393.10522Z" transform="translate(-374.0351 -393.10522)"/><path class="cls-3" d="M403.43359,450.42285l21.41016,9.22852v3.876L399.4043,451.86865v-2.98388l25.43945-11.62793v3.876Z" transform="translate(-374.0351 -393.10522)"/><path class="cls-3" d="M460.835,454.26807q0,7.78271-3.44531,12.35058a11.00138,11.00138,0,0,1-9.25879,4.56836q-6.95216,0-10.52051-5.168l-.1543,4.55274h-3.44531v-47.25h3.66114v18.79541a11.56874,11.56874,0,0,1,10.39746-5.44483,11.10549,11.10549,0,0,1,9.33593,4.50684q3.43067,4.50659,3.42969,12.53516Zm-3.69141-.646q0-6.58227-2.55273-10.1665a8.3239,8.3239,0,0,0-7.19824-3.584,10.1338,10.1338,0,0,0-5.999,1.73828,10.56788,10.56788,0,0,0-3.72167,5.09082V461.7124q2.76855,6.2754,9.78222,6.27539a8.26256,8.26256,0,0,0,7.1211-3.59912Q457.14307,460.78956,457.14355,453.62207Z" transform="translate(-374.0351 -393.10522)"/><path class="cls-3" d="M484.33691,440.42529a13.799,13.799,0,0,0-2.49218-.21533,8.99039,8.99039,0,0,0-5.8291,1.92236,10.54212,10.54212,0,0,0-3.39942,5.5835v22.856h-3.66016V437.2876h3.59961l.06055,5.291a9.78939,9.78939,0,0,1,9.38281-5.90625,6.05986,6.05986,0,0,1,2.42969.39991Z" transform="translate(-374.0351 -393.10522)"/><path class="cls-3" d="M489.62793,474.417h-3.35254l18.70313-48.63428h3.32226Z" transform="translate(-374.0351 -393.10522)"/><path class="cls-3" d="M536.04688,450.2998l-21.8711-9.3208v-3.78369l25.99414,11.62793v2.98389l-25.99414,11.65869v-3.81445Z" transform="translate(-374.0351 -393.10522)"/></svg>