<svg id="Layer_1" data-name="Layer 1" xmlns="http://www.w3.org/2000/svg" viewBox="0 0 625.47369 149.63162"><defs><style>.cls-1{fill:#0071bc;}.cls-2{fill:#29abe2;}.cls-3{fill:#fff;}</style></defs><title>head</title><rect class="cls-1" x="546.43859" y="66.2632" width="47.19298" height="83.36842" rx="12" ry="12"/><path class="cls-2" d="M978.50879,393.10522h-8.9671v18H969.5v12.18421a13,13,0,0,1-13,13H929.83331a13,13,0,0,1-13-13V411.10522h-.04162v-18H395.0351a21,21,0,0,0-21,21v67.68421a21,21,0,0,0,21,21H978.50879a21,21,0,0,0,21-21V414.10522A21,21,0,0,0,978.50879,393.10522Z" transform="translate(-374.0351 -393.10522)"/><path class="cls-3" d="M409.5415,447.42285l21.41016,9.22852v3.876l-25.43994-11.65869v-2.98388l25.43994-11.62793v3.876Z" transform="translate(-374.0351 -393.10522)"/><path class="cls-3" d="M443.81006,439.917a13.00066,13.00066,0,0,1,4.645-4.61426,12.17025,12.17025,0,0,1,6.1831-1.63037q5.35254,0,7.96729,3.01465,2.614,3.01539,2.64551,9.04395v21.84082h-3.66065V445.7002q-.03076-4.45972-1.89209-6.64454-1.86108-2.18408-5.95215-2.18408a9.315,9.315,0,0,0-6.04492,2.1377,12.53362,12.53362,0,0,0-3.89111,5.76806v22.79444h-3.66065v-47.25h3.66065Z" transform="translate(-374.0351 -393.10522)"/><path class="cls-3" d="M487.61475,468.187a14.44518,14.44518,0,0,1-7.6753-2.0918,14.2574,14.2574,0,0,1-5.33691-5.8291,18.17059,18.17059,0,0,1-1.90723-8.38281v-1.32275a19.581,19.581,0,0,1,1.86133-8.644,14.80646,14.80646,0,0,1,5.18311-6.04492,12.79056,12.79056,0,0,1,7.19824-2.19922,12.0169,12.0169,0,0,1,9.61279,4.1377q3.55371,4.13745,3.55322,11.30469v2.061H476.356v.70752a13.93509,13.93509,0,0,0,3.2456,9.42871,10.32284,10.32284,0,0,0,8.167,3.76807,11.98453,11.98453,0,0,0,5.21387-1.07666,11.55594,11.55594,0,0,0,4.10694-3.44531l2.30712,1.75341Q495.33594,468.18774,487.61475,468.187Zm-.67676-31.37695a9.203,9.203,0,0,0-6.99854,3.04541,14.0687,14.0687,0,0,0-3.46045,8.18262h19.96436v-.39991a12.21868,12.21868,0,0,0-2.73779-7.81347A8.48515,8.48515,0,0,0,486.938,436.81006Z" transform="translate(-374.0351 -393.10522)"/><path class="cls-3" d="M528.28174,467.57178a17.40842,17.40842,0,0,1-.70752-4.645,12.82891,12.82891,0,0,1-4.9375,3.89111,15.12034,15.12034,0,0,1-6.352,1.36914,11.15566,11.15566,0,0,1-7.76709-2.67627,8.71667,8.71667,0,0,1-2.96875-6.76758,8.90858,8.90858,0,0,1,4.04492-7.69043q4.04517-2.83006,11.27441-2.83007h6.6753V444.439a7.29253,7.29253,0,0,0-2.19971-5.61425q-2.19947-2.04492-6.41357-2.04541a10.03868,10.03868,0,0,0-6.36768,1.96875,5.84976,5.84976,0,0,0-2.52246,4.7373l-3.69141-.03076a8.55876,8.55876,0,0,1,3.69141-6.875,14.21147,14.21147,0,0,1,9.07471-2.90723q5.56713,0,8.78271,2.78418a9.99031,9.99031,0,0,1,3.30664,7.76709v15.75a19.53484,19.53484,0,0,0,1.01514,7.229v.36914Zm-11.56641-2.64551a12.35607,12.35607,0,0,0,6.59815-1.78418,10.49392,10.49392,0,0,0,4.23-4.76807v-7.32129h-6.583q-5.50709.06227-8.61328,2.01514a6.046,6.046,0,0,0-3.10694,5.36768,5.95212,5.95212,0,0,0,2.07618,4.645A7.82394,7.82394,0,0,0,516.71533,464.92627Z" transform="translate(-374.0351 -393.10522)"/><path class="cls-3" d="M539.54053,450.62207q0-7.752,3.46093-12.35107a11.13833,11.13833,0,0,1,9.39747-4.59864,11.57446,11.57446,0,0,1,10.27441,5.32178V420.32178H566.334v47.25h-3.44531l-.15381-4.42969q-3.5376,5.04565-10.39746,5.04492a11.09613,11.09613,0,0,1-9.27441-4.62988q-3.52294-4.62891-3.52246-12.5044Zm3.72217.646q0,6.36766,2.55322,10.04394a8.25773,8.25773,0,0,0,7.19824,3.67578,9.90774,9.90774,0,0,0,9.65918-5.99853v-15.627q-2.86085-6.49-9.59766-6.49072a8.356,8.356,0,0,0-7.229,3.64551Q543.26269,444.16162,543.2627,451.26807Z" transform="translate(-374.0351 -393.10522)"/><path class="cls-3" d="M596.91113,447.2998l-21.87158-9.3208v-3.78369l25.99365,11.62793v2.98389l-25.99365,11.65869v-3.81445Z" transform="translate(-374.0351 -393.10522)"/></svg>