<svg id="Layer_1" data-name="Layer 1" xmlns="http://www.w3.org/2000/svg" viewBox="0 0 625.47369 149.63162"><defs><style>.cls-1{fill:#f15a24;}.cls-2{fill:#f7931e;}.cls-3{fill:#fff;}</style></defs><title>hr</title><rect class="cls-1" x="546.43859" y="66.2632" width="47.19298" height="83.36842" rx="12" ry="12"/><path class="cls-2" d="M978.50879,393.10522h-8.9671v18H969.5v12.18421a13,13,0,0,1-13,13H929.83331a13,13,0,0,1-13-13V411.10522h-.04162v-18H395.0351a21,21,0,0,0-21,21v67.68421a21,21,0,0,0,21,21H978.50879a21,21,0,0,0,21-21V414.10522A21,21,0,0,0,978.50879,393.10522Z" transform="translate(-374.0351 -393.10522)"/><path class="cls-3" d="M402.43359,450.42285l21.41016,9.22852v3.876L398.4043,451.86865v-2.98388l25.43945-11.62793v3.876Z" transform="translate(-374.0351 -393.10522)"/><path class="cls-3" d="M436.70215,442.917a13.00581,13.00581,0,0,1,4.64551-4.61426,12.16847,12.16847,0,0,1,6.18261-1.63037q5.35254,0,7.96778,3.01465,2.61474,3.01539,2.6455,9.04395v21.84082H454.4834V448.7002q-.03224-4.45972-1.89258-6.64454-1.86182-2.18408-5.95215-2.18408a9.315,9.315,0,0,0-6.04492,2.1377,12.53443,12.53443,0,0,0-3.8916,5.76806v22.79444H433.042v-47.25h3.66016Z" transform="translate(-374.0351 -393.10522)"/><path class="cls-3" d="M482.999,440.42529a13.799,13.799,0,0,0-2.49218-.21533,8.99044,8.99044,0,0,0-5.82911,1.92236,10.54211,10.54211,0,0,0-3.39941,5.5835v22.856h-3.66016V437.2876h3.59961l.06055,5.291a9.78939,9.78939,0,0,1,9.38281-5.90625,6.05986,6.05986,0,0,1,2.42969.39991Z" transform="translate(-374.0351 -393.10522)"/><path class="cls-3" d="M488.28906,474.417h-3.35254l18.70313-48.63428h3.32226Z" transform="translate(-374.0351 -393.10522)"/><path class="cls-3" d="M534.708,450.2998l-21.8711-9.3208v-3.78369l25.99414,11.62793v2.98389l-25.99414,11.65869v-3.81445Z" transform="translate(-374.0351 -393.10522)"/></svg>