<svg id="Layer_1" data-name="Layer 1" xmlns="http://www.w3.org/2000/svg" viewBox="0 0 625.47369 149.63162"><defs><style>.cls-1{fill:#0071bc;}.cls-2{fill:#29abe2;}.cls-3{fill:#fff;}</style></defs><title>html</title><rect class="cls-1" x="546.43859" y="66.2632" width="47.19298" height="83.36842" rx="12" ry="12"/><path class="cls-2" d="M978.50879,393.10522h-8.9671v18H969.5v12.18421a13,13,0,0,1-13,13H929.83331a13,13,0,0,1-13-13V411.10522h-.04162v-18H395.0351a21,21,0,0,0-21,21v67.68421a21,21,0,0,0,21,21H978.50879a21,21,0,0,0,21-21V414.10522A21,21,0,0,0,978.50879,393.10522Z" transform="translate(-374.0351 -393.10522)"/><path class="cls-3" d="M403.43359,449.42285l21.41016,9.22852v3.876L399.4043,450.86865v-2.98388l25.43945-11.62793v3.876Z" transform="translate(-374.0351 -393.10522)"/><path class="cls-3" d="M437.70215,441.917a13.00581,13.00581,0,0,1,4.64551-4.61426,12.16847,12.16847,0,0,1,6.18261-1.63037q5.35254,0,7.96778,3.01465,2.61474,3.01539,2.6455,9.04395v21.84082H455.4834V447.7002q-.03224-4.45972-1.89258-6.64454-1.86182-2.18408-5.95215-2.18408a9.315,9.315,0,0,0-6.04492,2.1377,12.53443,12.53443,0,0,0-3.8916,5.76806v22.79444H434.042v-47.25h3.66016Z" transform="translate(-374.0351 -393.10522)"/><path class="cls-3" d="M474.33984,427.7666v8.521h6.89063v3.01465h-6.89063v22.20361a6.94726,6.94726,0,0,0,1,4.127,3.8717,3.8717,0,0,0,3.33692,1.355,22.9077,22.9077,0,0,0,2.98437-.30761l.1543,2.98877a12.04673,12.04673,0,0,1-3.9375.51806q-3.78516,0-5.50684-2.19922-1.72264-2.19947-1.72265-6.47558v-22.21h-6.12207V436.2876h6.12207v-8.521Z" transform="translate(-374.0351 -393.10522)"/><path class="cls-3" d="M492.21191,436.2876l.12305,5.41406a12.3181,12.3181,0,0,1,4.61328-4.522,12.65977,12.65977,0,0,1,6.15235-1.50733q7.875,0,9.998,6.46a12.49443,12.49443,0,0,1,4.76758-4.7832,13.20923,13.20923,0,0,1,6.584-1.67676q10.70506,0,10.91992,11.68946v22.21h-3.69141V447.63867q-.03077-4.45971-1.92285-6.61377-1.89111-2.15259-6.167-2.15332a9.80835,9.80835,0,0,0-6.707,2.56836,9.07829,9.07829,0,0,0-3.04493,6.10645v22.02539h-3.6914v-22.21q-.03077-4.27515-2.01465-6.38282-1.98486-2.10717-6.10645-2.10742a9.28254,9.28254,0,0,0-5.96777,1.98438,11.63507,11.63507,0,0,0-3.69141,5.89062v22.8252h-3.6914V436.2876Z" transform="translate(-374.0351 -393.10522)"/><path class="cls-3" d="M548.81348,469.57178h-3.69141v-47.25h3.69141Z" transform="translate(-374.0351 -393.10522)"/><path class="cls-3" d="M579.69824,449.2998l-21.87109-9.3208v-3.78369l25.99414,11.62793v2.98389l-25.99414,11.65869v-3.81445Z" transform="translate(-374.0351 -393.10522)"/></svg>