<svg id="Layer_1" data-name="Layer 1" xmlns="http://www.w3.org/2000/svg" viewBox="0 0 625.47369 149.63162"><defs><style>.cls-1{fill:#f15a24;}.cls-2{fill:#f7931e;}.cls-3{fill:#fff;}</style></defs><title>img</title><rect class="cls-1" x="546.43859" y="66.2632" width="47.19298" height="83.36842" rx="12" ry="12"/><path class="cls-2" d="M978.50879,393.10522h-8.9671v18H969.5v12.18421a13,13,0,0,1-13,13H929.83331a13,13,0,0,1-13-13V411.10522h-.04162v-18H395.0351a21,21,0,0,0-21,21v67.68421a21,21,0,0,0,21,21H978.50879a21,21,0,0,0,21-21V414.10522A21,21,0,0,0,978.50879,393.10522Z" transform="translate(-374.0351 -393.10522)"/><path class="cls-3" d="M401.43359,450.42285l21.41016,9.22852v3.876L397.4043,451.86865v-2.98388l25.43945-11.62793v3.876Z" transform="translate(-374.0351 -393.10522)"/><path class="cls-3" d="M431.82715,427.67432a2.46542,2.46542,0,0,1,.67578-1.75733,2.41362,2.41362,0,0,1,1.8457-.71875,2.46386,2.46386,0,0,1,1.86133.71875,2.43438,2.43438,0,0,1,.69238,1.75733A2.38385,2.38385,0,0,1,436.21,429.417a2.49094,2.49094,0,0,1-1.86133.70313,2.43975,2.43975,0,0,1-1.8457-.70313A2.41379,2.41379,0,0,1,431.82715,427.67432Zm4.33691,42.89746h-3.6914V437.2876h3.6914Z" transform="translate(-374.0351 -393.10522)"/><path class="cls-3" d="M449.51465,437.2876l.123,5.41406a12.318,12.318,0,0,1,4.61328-4.522,12.6597,12.6597,0,0,1,6.15234-1.50733q7.875,0,9.998,6.46a12.49436,12.49436,0,0,1,4.76758-4.7832,13.20919,13.20919,0,0,1,6.584-1.67676q10.70508,0,10.91992,11.68946v22.21h-3.6914V448.63867q-.03076-4.45971-1.92286-6.61377-1.89111-2.15259-6.167-2.15332a9.80839,9.80839,0,0,0-6.707,2.56836,9.07832,9.07832,0,0,0-3.04492,6.10645v22.02539h-3.69141v-22.21q-.03077-4.27515-2.01465-6.38282-1.98486-2.10717-6.10644-2.10742a9.28254,9.28254,0,0,0-5.96777,1.98438,11.63494,11.63494,0,0,0-3.69141,5.89062v22.8252h-3.69141V437.2876Z" transform="translate(-374.0351 -393.10522)"/><path class="cls-3" d="M500.5166,453.62207q0-7.81347,3.46094-12.38135a11.16228,11.16228,0,0,1,9.39746-4.56836,11.57591,11.57591,0,0,1,10.33594,5.41407l.18457-4.79883h3.44531V469.895q0,6.42919-3.59961,10.18213-3.59766,3.75292-9.751,3.75293a14.81522,14.81522,0,0,1-6.6289-1.55322,12.86974,12.86974,0,0,1-4.96778-4.1377l2.06055-2.21484q3.90673,4.79883,9.29,4.79882a9.44676,9.44676,0,0,0,7.19824-2.72265,10.84084,10.84084,0,0,0,2.67578-7.55176v-4.18359q-3.53759,4.92188-10.30468,4.92187a11.09911,11.09911,0,0,1-9.29-4.61426q-3.50684-4.61426-3.50684-12.45849Zm3.72266.646q0,6.36766,2.55273,10.04394a8.25773,8.25773,0,0,0,7.19824,3.67578,9.83667,9.83667,0,0,0,9.62793-6.09082V446.42383a10.49754,10.49754,0,0,0-3.72168-4.87549,10.03809,10.03809,0,0,0-5.84472-1.67676,8.3552,8.3552,0,0,0-7.22852,3.64551Q504.23927,447.16162,504.23926,454.26807Z" transform="translate(-374.0351 -393.10522)"/><path class="cls-3" d="M557.8252,450.2998l-21.8711-9.3208v-3.78369l25.99414,11.62793v2.98389L535.9541,463.46582v-3.81445Z" transform="translate(-374.0351 -393.10522)"/></svg>