<svg id="Layer_1" data-name="Layer 1" xmlns="http://www.w3.org/2000/svg" viewBox="0 0 625.47369 149.63162"><defs><style>.cls-1{fill:#f15a24;}.cls-2{fill:#f7931e;}.cls-3{fill:#fff;}</style></defs><title>span</title><rect class="cls-1" x="546.43859" y="66.2632" width="47.19298" height="83.36842" rx="12" ry="12"/><path class="cls-2" d="M978.50879,393.10522h-8.9671v18H969.5v12.18421a13,13,0,0,1-13,13H929.83331a13,13,0,0,1-13-13V411.10522h-.04162v-18H395.0351a21,21,0,0,0-21,21v67.68421a21,21,0,0,0,21,21H978.50879a21,21,0,0,0,21-21V414.10522A21,21,0,0,0,978.50879,393.10522Z" transform="translate(-374.0351 -393.10522)"/><path class="cls-3" d="M402.43359,450.42285l21.41016,9.22852v3.876L398.4043,451.86865v-2.98388l25.43945-11.62793v3.876Z" transform="translate(-374.0351 -393.10522)"/><path class="cls-3" d="M452.97559,462.1123a5.246,5.246,0,0,0-2.19922-4.39892,16.97184,16.97184,0,0,0-6.62891-2.59961,29.87559,29.87559,0,0,1-6.876-2.15332,9.15469,9.15469,0,0,1-3.62988-2.96826,7.40926,7.40926,0,0,1-1.18359-4.24512,7.92009,7.92009,0,0,1,3.291-6.50635,13.29791,13.29791,0,0,1,8.42871-2.56836,13.68835,13.68835,0,0,1,8.93653,2.75293,8.83847,8.83847,0,0,1,3.36816,7.18311H452.791a5.96181,5.96181,0,0,0-2.44532-4.86035,11.03831,11.03831,0,0,0-11.99707-.32276,4.98111,4.98111,0,0,0-2.19922,4.19873,4.53841,4.53841,0,0,0,1.83008,3.86084q1.8296,1.3689,6.67481,2.50684a31.37416,31.37416,0,0,1,7.25976,2.43018,9.39931,9.39931,0,0,1,3.584,3.10693,8.54327,8.54327,0,0,1-2.23047,11.13574,14.52082,14.52082,0,0,1-8.874,2.52246,14.91,14.91,0,0,1-9.42871-2.81445,8.66367,8.66367,0,0,1-3.61425-7.12158h3.6914a6.39751,6.39751,0,0,0,2.72168,5.02978,11.1329,11.1329,0,0,0,6.62988,1.79932,10.459,10.459,0,0,0,6.2129-1.6919A5.07762,5.07762,0,0,0,452.97559,462.1123Z" transform="translate(-374.0351 -393.10522)"/><path class="cls-3" d="M491.7041,454.26807q0,7.78271-3.44531,12.35058a10.97258,10.97258,0,0,1-9.22852,4.56836q-6.82909,0-10.459-4.79883v16.98047h-3.66113V437.2876h3.415l.18457,4.70654a11.81054,11.81054,0,0,1,10.42773-5.32178,11.0707,11.0707,0,0,1,9.36719,4.522q3.39843,4.522,3.39941,12.55078Zm-3.6914-.646q0-6.36768-2.61426-10.05908a8.4333,8.4333,0,0,0-7.291-3.69141,9.71152,9.71152,0,0,0-9.53613,6.36768v15.96533a9.76671,9.76671,0,0,0,3.78418,4.36816,10.90681,10.90681,0,0,0,5.81348,1.50733,8.35288,8.35288,0,0,0,7.24414-3.70654Q488.01318,460.66674,488.0127,453.62207Z" transform="translate(-374.0351 -393.10522)"/><path class="cls-3" d="M520.86621,470.57178a17.41192,17.41192,0,0,1-.707-4.645,12.82891,12.82891,0,0,1-4.9375,3.89111,15.11975,15.11975,0,0,1-6.35156,1.36914,11.15693,11.15693,0,0,1-7.76758-2.67627,8.71667,8.71667,0,0,1-2.96875-6.76758,8.9097,8.9097,0,0,1,4.04492-7.69043q4.04443-2.83006,11.27442-2.83007h6.6748V447.439a7.294,7.294,0,0,0-2.19922-5.61425q-2.19873-2.04492-6.41406-2.04541a10.03916,10.03916,0,0,0-6.36719,1.96875,5.84976,5.84976,0,0,0-2.52246,4.7373l-3.69141-.03076a8.55876,8.55876,0,0,1,3.69141-6.875,14.211,14.211,0,0,1,9.0752-2.90723q5.56639,0,8.78222,2.78418a9.99031,9.99031,0,0,1,3.30664,7.76709v15.75a19.55731,19.55731,0,0,0,1.01465,7.229v.36914Zm-11.56641-2.64551a12.35778,12.35778,0,0,0,6.59864-1.78418,10.49283,10.49283,0,0,0,4.22949-4.76807v-7.32129h-6.582q-5.50782.06227-8.61328,2.01514a6.04544,6.04544,0,0,0-3.10742,5.36768,5.95211,5.95211,0,0,0,2.07617,4.645A7.82266,7.82266,0,0,0,509.2998,467.92627Z" transform="translate(-374.0351 -393.10522)"/><path class="cls-3" d="M537.1084,437.2876l.12305,5.69092a13.21593,13.21593,0,0,1,4.67578-4.69092,12.14486,12.14486,0,0,1,6.18261-1.61524q5.35254,0,7.96778,3.01465,2.61474,3.01539,2.64551,9.04395v21.84082H555.043V448.7002q-.03223-4.45972-1.89258-6.64454-1.86181-2.18408-5.95215-2.18408a9.315,9.315,0,0,0-6.04492,2.1377,12.53443,12.53443,0,0,0-3.8916,5.76806v22.79444h-3.66016V437.2876Z" transform="translate(-374.0351 -393.10522)"/><path class="cls-3" d="M589.09473,450.2998l-21.8711-9.3208v-3.78369l25.99414,11.62793v2.98389l-25.99414,11.65869v-3.81445Z" transform="translate(-374.0351 -393.10522)"/></svg>