<svg id="Layer_1" data-name="Layer 1" xmlns="http://www.w3.org/2000/svg" viewBox="0 0 625.47369 149.63162"><defs><style>.cls-1{fill:#0071bc;}.cls-2{fill:#29abe2;}.cls-3{fill:#fff;}</style></defs><title>title</title><rect class="cls-1" x="546.43859" y="66.2632" width="47.19298" height="83.36842" rx="12" ry="12"/><path class="cls-2" d="M978.50879,393.10522h-8.9671v18H969.5v12.18421a13,13,0,0,1-13,13H929.83331a13,13,0,0,1-13-13V411.10522h-.04162v-18H395.0351a21,21,0,0,0-21,21v67.68421a21,21,0,0,0,21,21H978.50879a21,21,0,0,0,21-21V414.10522A21,21,0,0,0,978.50879,393.10522Z" transform="translate(-374.0351 -393.10522)"/><path class="cls-3" d="M409.5415,447.42285l21.41016,9.22852v3.876l-25.43994-11.65869v-2.98388l25.43994-11.62793v3.876Z" transform="translate(-374.0351 -393.10522)"/><path class="cls-3" d="M445.87109,425.7666v8.521h6.89063v3.01465h-6.89063v22.20361a6.94726,6.94726,0,0,0,1,4.127,3.8727,3.8727,0,0,0,3.33741,1.355,22.90233,22.90233,0,0,0,2.98388-.30761l.15381,2.98877a12.04071,12.04071,0,0,1-3.9375.51806q-3.78369,0-5.50635-2.19922-1.72338-2.19947-1.72265-6.47558v-22.21h-6.12158V434.2876h6.12158v-8.521Z" transform="translate(-374.0351 -393.10522)"/><path class="cls-3" d="M460.17529,424.67432a2.46623,2.46623,0,0,1,.67676-1.75733,2.41217,2.41217,0,0,1,1.8457-.71875,2.46272,2.46272,0,0,1,1.86084.71875,2.43439,2.43439,0,0,1,.69239,1.75733,2.38386,2.38386,0,0,1-.69239,1.74267,2.48978,2.48978,0,0,1-1.86084.70313,2.36685,2.36685,0,0,1-2.52246-2.4458Zm4.33741,42.89746h-3.69141V434.2876h3.69141Z" transform="translate(-374.0351 -393.10522)"/><path class="cls-3" d="M480.23193,425.7666v8.521h6.89063v3.01465h-6.89063v22.20361a6.94726,6.94726,0,0,0,1,4.127,3.8727,3.8727,0,0,0,3.33741,1.355,22.90233,22.90233,0,0,0,2.98388-.30761l.15381,2.98877a12.04071,12.04071,0,0,1-3.9375.51806q-3.78369,0-5.50635-2.19922-1.72338-2.19947-1.72265-6.47558v-22.21H470.419V434.2876h6.12158v-8.521Z" transform="translate(-374.0351 -393.10522)"/><path class="cls-3" d="M498.87354,467.57178h-3.69141v-47.25h3.69141Z" transform="translate(-374.0351 -393.10522)"/><path class="cls-3" d="M521.76025,468.187a14.44517,14.44517,0,0,1-7.67529-2.0918,14.2574,14.2574,0,0,1-5.33691-5.8291,18.17047,18.17047,0,0,1-1.90723-8.38281v-1.32275a19.581,19.581,0,0,1,1.86133-8.644,14.80644,14.80644,0,0,1,5.1831-6.04492,12.79061,12.79061,0,0,1,7.19825-2.19922,12.0169,12.0169,0,0,1,9.61279,4.1377q3.55371,4.13745,3.55322,11.30469v2.061h-23.748v.70752a13.9351,13.9351,0,0,0,3.24561,9.42871,10.32284,10.32284,0,0,0,8.167,3.76807,11.98457,11.98457,0,0,0,5.21387-1.07666,11.55591,11.55591,0,0,0,4.10693-3.44531l2.30713,1.75341Q529.48145,468.18774,521.76025,468.187Zm-.67675-31.37695a9.203,9.203,0,0,0-6.99854,3.04541,14.0687,14.0687,0,0,0-3.46045,8.18262h19.96436v-.39991a12.21863,12.21863,0,0,0-2.7378-7.81347A8.48511,8.48511,0,0,0,521.0835,436.81006Z" transform="translate(-374.0351 -393.10522)"/><path class="cls-3" d="M562.3042,447.2998l-21.87158-9.3208v-3.78369l25.99365,11.62793v2.98389l-25.99365,11.65869v-3.81445Z" transform="translate(-374.0351 -393.10522)"/></svg>